<svg xmlns="http://www.w3.org/2000/svg" xmlns:xlink="http://www.w3.org/1999/xlink" width="1920" zoomAndPan="magnify" viewBox="0 0 1440 809.999993" height="1080" preserveAspectRatio="xMidYMid meet" version="1.0"><defs><g/><clipPath id="b73ad0852f"><rect x="0" width="885" y="0" height="442"/></clipPath><clipPath id="207d11bddb"><path d="M 81 233.957031 L 419.25 233.957031 L 419.25 572.207031 L 81 572.207031 Z M 81 233.957031 " clip-rule="nonzero"/></clipPath><clipPath id="47ca0f7224"><path d="M 0.199219 1.15625 L 338.25 1.15625 L 338.25 339.207031 L 0.199219 339.207031 Z M 0.199219 1.15625 " clip-rule="nonzero"/></clipPath><clipPath id="a6af3dbbfd"><rect x="0" width="339" y="0" height="340"/></clipPath></defs><g transform="matrix(1, 0, 0, 1, 468, 182)"><g clip-path="url(#b73ad0852f)"><g fill="#fbf8ef" fill-opacity="1"><g transform="translate(0.95219, 181.00126)"><g><path d="M 48.859375 44.65625 L 18.0625 44.65625 L 18.0625 -130.796875 L 47.328125 -130.796875 L 47.328125 -108.78125 C 52.078125 -116.664062 58.394531 -122.941406 66.28125 -127.609375 C 74.175781 -132.273438 82.828125 -134.609375 92.234375 -134.609375 C 101.566406 -134.609375 110.113281 -132.804688 117.875 -129.203125 C 125.632812 -125.597656 132.351562 -120.632812 138.03125 -114.3125 C 143.71875 -107.988281 148.128906 -100.648438 151.265625 -92.296875 C 154.410156 -83.941406 155.984375 -74.972656 155.984375 -65.390625 C 155.984375 -55.804688 154.410156 -46.816406 151.265625 -38.421875 C 148.128906 -30.023438 143.695312 -22.644531 137.96875 -16.28125 C 132.25 -9.925781 125.550781 -4.96875 117.875 -1.40625 C 110.195312 2.15625 101.78125 3.9375 92.625 3.9375 C 86.257812 3.9375 80.234375 2.894531 74.546875 0.8125 C 68.867188 -1.257812 63.78125 -4.179688 59.28125 -7.953125 C 54.789062 -11.722656 51.101562 -16.113281 48.21875 -21.125 L 48.859375 -5.984375 Z M 87.03125 -24.421875 C 93.976562 -24.421875 100.359375 -26.070312 106.171875 -29.375 C 111.984375 -32.6875 116.648438 -37.414062 120.171875 -43.5625 C 123.691406 -49.71875 125.453125 -56.992188 125.453125 -65.390625 C 125.453125 -73.617188 123.710938 -80.785156 120.234375 -86.890625 C 116.753906 -93.003906 112.109375 -97.753906 106.296875 -101.140625 C 100.484375 -104.535156 94.015625 -106.234375 86.890625 -106.234375 C 81.546875 -106.234375 76.5625 -105.191406 71.9375 -103.109375 C 67.320312 -101.035156 63.253906 -98.132812 59.734375 -94.40625 C 56.210938 -90.675781 53.453125 -86.347656 51.453125 -81.421875 C 49.460938 -76.503906 48.46875 -71.160156 48.46875 -65.390625 C 48.46875 -59.453125 49.484375 -53.976562 51.515625 -48.96875 C 53.554688 -43.96875 56.359375 -39.625 59.921875 -35.9375 C 63.484375 -32.25 67.597656 -29.40625 72.265625 -27.40625 C 76.929688 -25.414062 81.851562 -24.421875 87.03125 -24.421875 Z M 87.03125 -24.421875 "/></g></g></g><g fill="#fbf8ef" fill-opacity="1"><g transform="translate(148.504731, 181.00126)"><g><path d="M 48.859375 0 L 18.0625 0 L 18.0625 -130.796875 L 47.578125 -130.796875 L 47.578125 -107.125 C 50.628906 -114.332031 55.125 -120.078125 61.0625 -124.359375 C 67 -128.648438 74.210938 -130.796875 82.703125 -130.796875 L 96.6875 -130.796875 L 96.6875 -104.328125 L 84.359375 -104.328125 C 77.316406 -104.328125 71.125 -102.628906 65.78125 -99.234375 C 60.4375 -95.847656 56.28125 -90.929688 53.3125 -84.484375 C 50.34375 -78.035156 48.859375 -70.144531 48.859375 -60.8125 Z M 48.859375 0 "/></g></g></g><g fill="#fbf8ef" fill-opacity="1"><g transform="translate(231.938321, 181.00126)"><g><path d="M 77.484375 3.9375 C 67.554688 3.9375 58.394531 2.15625 50 -1.40625 C 41.601562 -4.96875 34.328125 -9.925781 28.171875 -16.28125 C 22.023438 -22.644531 17.253906 -30.023438 13.859375 -38.421875 C 10.472656 -46.816406 8.78125 -55.804688 8.78125 -65.390625 C 8.78125 -74.972656 10.472656 -83.941406 13.859375 -92.296875 C 17.253906 -100.648438 22.023438 -108.007812 28.171875 -114.375 C 34.328125 -120.738281 41.601562 -125.722656 50 -129.328125 C 58.394531 -132.929688 67.597656 -134.734375 77.609375 -134.734375 C 87.703125 -134.734375 96.945312 -132.929688 105.34375 -129.328125 C 113.738281 -125.722656 121.03125 -120.738281 127.21875 -114.375 C 133.414062 -108.007812 138.207031 -100.648438 141.59375 -92.296875 C 144.988281 -83.941406 146.6875 -74.972656 146.6875 -65.390625 C 146.6875 -55.722656 144.988281 -46.710938 141.59375 -38.359375 C 138.207031 -30.003906 133.414062 -22.644531 127.21875 -16.28125 C 121.03125 -9.925781 113.71875 -4.96875 105.28125 -1.40625 C 96.84375 2.15625 87.578125 3.9375 77.484375 3.9375 Z M 77.734375 -24.6875 C 85.117188 -24.6875 91.691406 -26.441406 97.453125 -29.953125 C 103.222656 -33.472656 107.78125 -38.285156 111.125 -44.390625 C 114.476562 -50.503906 116.15625 -57.503906 116.15625 -65.390625 C 116.15625 -73.285156 114.476562 -80.304688 111.125 -86.453125 C 107.78125 -92.597656 103.222656 -97.429688 97.453125 -100.953125 C 91.691406 -104.472656 85.117188 -106.234375 77.734375 -106.234375 C 70.441406 -106.234375 63.890625 -104.472656 58.078125 -100.953125 C 52.265625 -97.429688 47.679688 -92.597656 44.328125 -86.453125 C 40.984375 -80.304688 39.3125 -73.285156 39.3125 -65.390625 C 39.3125 -57.503906 40.984375 -50.503906 44.328125 -44.390625 C 47.679688 -38.285156 52.265625 -33.472656 58.078125 -29.953125 C 63.890625 -26.441406 70.441406 -24.6875 77.734375 -24.6875 Z M 77.734375 -24.6875 "/></g></g></g><g fill="#fbf8ef" fill-opacity="1"><g transform="translate(370.203781, 181.00126)"><g><path d="M 72.015625 3.9375 C 62.765625 3.9375 54.257812 2.15625 46.5 -1.40625 C 38.738281 -4.96875 32.054688 -9.925781 26.453125 -16.28125 C 20.859375 -22.644531 16.515625 -30.023438 13.421875 -38.421875 C 10.328125 -46.816406 8.78125 -55.804688 8.78125 -65.390625 C 8.78125 -74.972656 10.285156 -83.941406 13.296875 -92.296875 C 16.304688 -100.648438 20.628906 -108.007812 26.265625 -114.375 C 31.910156 -120.738281 38.632812 -125.722656 46.4375 -129.328125 C 54.238281 -132.929688 62.890625 -134.734375 72.390625 -134.734375 C 79.515625 -134.734375 85.984375 -133.484375 91.796875 -130.984375 C 97.609375 -128.484375 102.613281 -125.300781 106.8125 -121.4375 C 111.007812 -117.582031 114.253906 -113.578125 116.546875 -109.421875 L 115.90625 -123.03125 L 115.90625 -179.140625 L 146.5625 -179.140625 L 146.5625 0 L 117.296875 0 L 117.296875 -22.015625 C 114.753906 -17.429688 111.320312 -13.164062 107 -9.21875 C 102.675781 -5.28125 97.585938 -2.101562 91.734375 0.3125 C 85.878906 2.726562 79.304688 3.9375 72.015625 3.9375 Z M 77.609375 -24.421875 C 82.953125 -24.421875 87.957031 -25.457031 92.625 -27.53125 C 97.289062 -29.613281 101.378906 -32.519531 104.890625 -36.25 C 108.410156 -39.988281 111.164062 -44.335938 113.15625 -49.296875 C 115.15625 -54.265625 116.15625 -59.628906 116.15625 -65.390625 C 116.15625 -71.160156 115.179688 -76.503906 113.234375 -81.421875 C 111.285156 -86.347656 108.550781 -90.675781 105.03125 -94.40625 C 101.507812 -98.132812 97.414062 -101.035156 92.75 -103.109375 C 88.082031 -105.191406 83.035156 -106.234375 77.609375 -106.234375 C 70.398438 -106.234375 63.867188 -104.472656 58.015625 -100.953125 C 52.160156 -97.429688 47.535156 -92.617188 44.140625 -86.515625 C 40.753906 -80.410156 39.0625 -73.367188 39.0625 -65.390625 C 39.0625 -57.671875 40.710938 -50.710938 44.015625 -44.515625 C 47.328125 -38.328125 51.882812 -33.429688 57.6875 -29.828125 C 63.5 -26.222656 70.140625 -24.421875 77.609375 -24.421875 Z M 77.609375 -24.421875 "/></g></g></g><g fill="#fbf8ef" fill-opacity="1"><g transform="translate(517.501882, 181.00126)"><g><path d="M 76.84375 3.9375 C 68.101562 3.9375 60 2.726562 52.53125 0.3125 C 45.070312 -2.101562 38.546875 -5.894531 32.953125 -11.0625 C 27.359375 -16.238281 23.007812 -22.941406 19.90625 -31.171875 C 16.8125 -39.398438 15.265625 -49.320312 15.265625 -60.9375 L 15.265625 -130.796875 L 45.796875 -130.796875 L 45.796875 -61.828125 C 45.796875 -49.785156 48.382812 -40.582031 53.5625 -34.21875 C 58.738281 -27.863281 66.457031 -24.6875 76.71875 -24.6875 C 87.0625 -24.6875 94.773438 -27.882812 99.859375 -34.28125 C 104.953125 -40.6875 107.5 -49.867188 107.5 -61.828125 L 107.5 -130.796875 L 138.171875 -130.796875 L 138.171875 -60.9375 C 138.171875 -49.320312 136.617188 -39.398438 133.515625 -31.171875 C 130.421875 -22.941406 126.078125 -16.238281 120.484375 -11.0625 C 114.890625 -5.894531 108.378906 -2.101562 100.953125 0.3125 C 93.535156 2.726562 85.5 3.9375 76.84375 3.9375 Z M 76.84375 3.9375 "/></g></g></g><g fill="#fbf8ef" fill-opacity="1"><g transform="translate(653.731819, 181.00126)"><g><path d="M 76.34375 3.9375 C 66.582031 3.9375 57.585938 2.132812 49.359375 -1.46875 C 41.128906 -5.070312 33.984375 -10.050781 27.921875 -16.40625 C 21.859375 -22.769531 17.148438 -30.148438 13.796875 -38.546875 C 10.453125 -46.941406 8.78125 -55.890625 8.78125 -65.390625 C 8.78125 -74.890625 10.453125 -83.816406 13.796875 -92.171875 C 17.148438 -100.523438 21.859375 -107.90625 27.921875 -114.3125 C 33.984375 -120.71875 41.128906 -125.722656 49.359375 -129.328125 C 57.585938 -132.929688 66.582031 -134.734375 76.34375 -134.734375 C 87.625 -134.734375 97.691406 -132.546875 106.546875 -128.171875 C 115.410156 -123.804688 122.832031 -117.847656 128.8125 -110.296875 C 134.789062 -102.753906 139.015625 -94.191406 141.484375 -84.609375 L 110.046875 -84.609375 C 107.160156 -91.898438 102.707031 -97.304688 96.6875 -100.828125 C 90.664062 -104.347656 83.925781 -106.109375 76.46875 -106.109375 C 71.71875 -106.109375 67.132812 -105.195312 62.71875 -103.375 C 58.3125 -101.550781 54.347656 -98.898438 50.828125 -95.421875 C 47.304688 -91.941406 44.503906 -87.675781 42.421875 -82.625 C 40.347656 -77.582031 39.3125 -71.835938 39.3125 -65.390625 C 39.3125 -58.941406 40.347656 -53.191406 42.421875 -48.140625 C 44.503906 -43.097656 47.304688 -38.816406 50.828125 -35.296875 C 54.347656 -31.785156 58.332031 -29.117188 62.78125 -27.296875 C 67.238281 -25.472656 71.800781 -24.5625 76.46875 -24.5625 C 83.925781 -24.5625 90.664062 -26.40625 96.6875 -30.09375 C 102.707031 -33.78125 107.160156 -39.695312 110.046875 -47.84375 L 141.34375 -47.84375 C 139.144531 -37.75 135.03125 -28.796875 129 -20.984375 C 122.976562 -13.179688 115.492188 -7.078125 106.546875 -2.671875 C 97.597656 1.734375 87.53125 3.9375 76.34375 3.9375 Z M 76.34375 3.9375 "/></g></g></g><g fill="#fbf8ef" fill-opacity="1"><g transform="translate(784.745787, 181.00126)"><g><path d="M 98.46875 0 L 71.890625 0 C 67.984375 0 63.972656 -0.359375 59.859375 -1.078125 C 55.742188 -1.796875 51.820312 -3.128906 48.09375 -5.078125 C 44.363281 -7.035156 41.035156 -9.859375 38.109375 -13.546875 C 35.179688 -17.234375 32.847656 -22.023438 31.109375 -27.921875 C 29.367188 -33.816406 28.5 -41.09375 28.5 -49.75 L 28.5 -104.328125 L 1.40625 -104.328125 L 1.40625 -130.796875 L 28.5 -130.796875 L 28.5 -169.078125 L 59.28125 -169.34375 L 59.28125 -130.796875 L 98.46875 -130.796875 L 98.46875 -104.328125 L 59.28125 -104.328125 L 59.28125 -48.34375 C 59.28125 -42.238281 60.171875 -37.53125 61.953125 -34.21875 C 63.734375 -30.914062 66.085938 -28.648438 69.015625 -27.421875 C 71.941406 -26.191406 75.019531 -25.578125 78.25 -25.578125 L 98.46875 -25.578125 Z M 98.46875 0 "/></g></g></g><g fill="#fbf8ef" fill-opacity="1"><g transform="translate(0.95219, 396.994755)"><g><path d="M 65.140625 3.9375 C 55.554688 3.9375 47.222656 2.664062 40.140625 0.125 C 33.054688 -2.414062 27.203125 -5.847656 22.578125 -10.171875 C 17.960938 -14.503906 14.53125 -19.382812 12.28125 -24.8125 C 10.03125 -30.238281 8.90625 -35.835938 8.90625 -41.609375 L 38.421875 -41.46875 C 38.671875 -35.539062 41.046875 -30.5625 45.546875 -26.53125 C 50.046875 -22.5 56.660156 -20.484375 65.390625 -20.484375 C 73.367188 -20.484375 79.242188 -22.007812 83.015625 -25.0625 C 86.785156 -28.113281 88.671875 -32.097656 88.671875 -37.015625 C 88.671875 -40.753906 87.609375 -43.679688 85.484375 -45.796875 C 83.367188 -47.921875 80.253906 -49.597656 76.140625 -50.828125 C 72.023438 -52.054688 67 -53.09375 61.0625 -53.9375 C 54.789062 -54.789062 48.832031 -56.109375 43.1875 -57.890625 C 37.550781 -59.671875 32.566406 -62.128906 28.234375 -65.265625 C 23.910156 -68.398438 20.5 -72.34375 18 -77.09375 C 15.5 -81.84375 14.25 -87.613281 14.25 -94.40625 C 14.25 -102.457031 16.132812 -109.492188 19.90625 -115.515625 C 23.6875 -121.546875 29.242188 -126.253906 36.578125 -129.640625 C 43.910156 -133.035156 52.878906 -134.734375 63.484375 -134.734375 C 74.003906 -134.734375 83.226562 -132.972656 91.15625 -129.453125 C 99.082031 -125.929688 105.25 -121.007812 109.65625 -114.6875 C 114.070312 -108.375 116.28125 -101.0625 116.28125 -92.75 L 86.140625 -93 C 85.796875 -97.832031 83.734375 -101.796875 79.953125 -104.890625 C 76.179688 -107.992188 70.734375 -109.546875 63.609375 -109.546875 C 56.992188 -109.546875 52.160156 -108.125 49.109375 -105.28125 C 46.054688 -102.4375 44.53125 -99.023438 44.53125 -95.046875 C 44.53125 -91.816406 45.25 -89.203125 46.6875 -87.203125 C 48.132812 -85.210938 50.828125 -83.5625 54.765625 -82.25 C 58.710938 -80.9375 64.421875 -79.6875 71.890625 -78.5 C 78.671875 -77.476562 84.988281 -76.117188 90.84375 -74.421875 C 96.695312 -72.734375 101.804688 -70.425781 106.171875 -67.5 C 110.535156 -64.570312 113.945312 -60.796875 116.40625 -56.171875 C 118.875 -51.546875 120.109375 -45.753906 120.109375 -38.796875 C 120.109375 -29.210938 117.707031 -21.257812 112.90625 -14.9375 C 108.113281 -8.625 101.582031 -3.898438 93.3125 -0.765625 C 85.050781 2.367188 75.660156 3.9375 65.140625 3.9375 Z M 65.140625 3.9375 "/></g></g></g><g fill="#fbf8ef" fill-opacity="1"><g transform="translate(111.229218, 396.994755)"><g><path d="M 142.5 -67.6875 C 142.5 -66.070312 142.453125 -64.539062 142.359375 -63.09375 C 142.273438 -61.65625 142.109375 -59.707031 141.859375 -57.25 L 39.6875 -57.25 C 40.789062 -50.125 43.0625 -44.054688 46.5 -39.046875 C 49.9375 -34.046875 54.195312 -30.207031 59.28125 -27.53125 C 64.375 -24.863281 69.929688 -23.53125 75.953125 -23.53125 C 83.753906 -23.53125 90.070312 -25.078125 94.90625 -28.171875 C 99.738281 -31.273438 103.257812 -35.582031 105.46875 -41.09375 L 139.0625 -41.09375 C 137.445312 -35.238281 134.796875 -29.597656 131.109375 -24.171875 C 127.421875 -18.742188 122.90625 -13.929688 117.5625 -9.734375 C 112.21875 -5.535156 106.085938 -2.207031 99.171875 0.25 C 92.265625 2.707031 84.738281 3.9375 76.59375 3.9375 C 66.75 3.9375 57.691406 2.132812 49.421875 -1.46875 C 41.148438 -5.070312 33.984375 -10.050781 27.921875 -16.40625 C 21.859375 -22.769531 17.148438 -30.148438 13.796875 -38.546875 C 10.453125 -46.941406 8.78125 -55.890625 8.78125 -65.390625 C 8.78125 -74.972656 10.453125 -83.941406 13.796875 -92.296875 C 17.148438 -100.648438 21.859375 -108.007812 27.921875 -114.375 C 33.984375 -120.738281 41.148438 -125.722656 49.421875 -129.328125 C 57.691406 -132.929688 66.75 -134.734375 76.59375 -134.734375 C 86.425781 -134.734375 95.394531 -132.953125 103.5 -129.390625 C 111.601562 -125.828125 118.554688 -120.925781 124.359375 -114.6875 C 130.171875 -108.457031 134.644531 -101.3125 137.78125 -93.25 C 140.925781 -85.195312 142.5 -76.675781 142.5 -67.6875 Z M 40.96875 -81.046875 L 111.0625 -81.046875 C 110.644531 -85.960938 108.820312 -90.4375 105.59375 -94.46875 C 102.375 -98.5 98.21875 -101.742188 93.125 -104.203125 C 88.039062 -106.660156 82.488281 -107.890625 76.46875 -107.890625 C 71.289062 -107.890625 66.328125 -106.929688 61.578125 -105.015625 C 56.828125 -103.109375 52.648438 -100.179688 49.046875 -96.234375 C 45.441406 -92.296875 42.75 -87.234375 40.96875 -81.046875 Z M 40.96875 -81.046875 "/></g></g></g><g fill="#fbf8ef" fill-opacity="1"><g transform="translate(243.515342, 396.994755)"><g><path d="M 48.859375 0 L 18.0625 0 L 18.0625 -130.796875 L 47.328125 -130.796875 L 47.328125 -110.4375 C 49.867188 -115.1875 53.34375 -119.382812 57.75 -123.03125 C 62.164062 -126.675781 67.300781 -129.535156 73.15625 -131.609375 C 79.007812 -133.691406 85.285156 -134.734375 91.984375 -134.734375 C 109.546875 -134.734375 122.691406 -129.15625 131.421875 -118 C 140.160156 -106.84375 144.53125 -91.003906 144.53125 -70.484375 L 144.53125 0 L 113.734375 0 L 113.734375 -69.84375 C 113.734375 -82.820312 111.019531 -92.148438 105.59375 -97.828125 C 100.164062 -103.515625 92.789062 -106.359375 83.46875 -106.359375 C 77.4375 -106.359375 71.789062 -104.832031 66.53125 -101.78125 C 61.28125 -98.726562 57.019531 -94.273438 53.75 -88.421875 C 50.488281 -82.566406 48.859375 -75.359375 48.859375 -66.796875 Z M 48.859375 0 "/></g></g></g><g fill="#fbf8ef" fill-opacity="1"><g transform="translate(387.887344, 396.994755)"><g><path d="M 65.140625 3.9375 C 55.554688 3.9375 47.222656 2.664062 40.140625 0.125 C 33.054688 -2.414062 27.203125 -5.847656 22.578125 -10.171875 C 17.960938 -14.503906 14.53125 -19.382812 12.28125 -24.8125 C 10.03125 -30.238281 8.90625 -35.835938 8.90625 -41.609375 L 38.421875 -41.46875 C 38.671875 -35.539062 41.046875 -30.5625 45.546875 -26.53125 C 50.046875 -22.5 56.660156 -20.484375 65.390625 -20.484375 C 73.367188 -20.484375 79.242188 -22.007812 83.015625 -25.0625 C 86.785156 -28.113281 88.671875 -32.097656 88.671875 -37.015625 C 88.671875 -40.753906 87.609375 -43.679688 85.484375 -45.796875 C 83.367188 -47.921875 80.253906 -49.597656 76.140625 -50.828125 C 72.023438 -52.054688 67 -53.09375 61.0625 -53.9375 C 54.789062 -54.789062 48.832031 -56.109375 43.1875 -57.890625 C 37.550781 -59.671875 32.566406 -62.128906 28.234375 -65.265625 C 23.910156 -68.398438 20.5 -72.34375 18 -77.09375 C 15.5 -81.84375 14.25 -87.613281 14.25 -94.40625 C 14.25 -102.457031 16.132812 -109.492188 19.90625 -115.515625 C 23.6875 -121.546875 29.242188 -126.253906 36.578125 -129.640625 C 43.910156 -133.035156 52.878906 -134.734375 63.484375 -134.734375 C 74.003906 -134.734375 83.226562 -132.972656 91.15625 -129.453125 C 99.082031 -125.929688 105.25 -121.007812 109.65625 -114.6875 C 114.070312 -108.375 116.28125 -101.0625 116.28125 -92.75 L 86.140625 -93 C 85.796875 -97.832031 83.734375 -101.796875 79.953125 -104.890625 C 76.179688 -107.992188 70.734375 -109.546875 63.609375 -109.546875 C 56.992188 -109.546875 52.160156 -108.125 49.109375 -105.28125 C 46.054688 -102.4375 44.53125 -99.023438 44.53125 -95.046875 C 44.53125 -91.816406 45.25 -89.203125 46.6875 -87.203125 C 48.132812 -85.210938 50.828125 -83.5625 54.765625 -82.25 C 58.710938 -80.9375 64.421875 -79.6875 71.890625 -78.5 C 78.671875 -77.476562 84.988281 -76.117188 90.84375 -74.421875 C 96.695312 -72.734375 101.804688 -70.425781 106.171875 -67.5 C 110.535156 -64.570312 113.945312 -60.796875 116.40625 -56.171875 C 118.875 -51.546875 120.109375 -45.753906 120.109375 -38.796875 C 120.109375 -29.210938 117.707031 -21.257812 112.90625 -14.9375 C 108.113281 -8.625 101.582031 -3.898438 93.3125 -0.765625 C 85.050781 2.367188 75.660156 3.9375 65.140625 3.9375 Z M 65.140625 3.9375 "/></g></g></g><g fill="#fbf8ef" fill-opacity="1"><g transform="translate(498.164419, 396.994755)"><g><path d="M 142.5 -67.6875 C 142.5 -66.070312 142.453125 -64.539062 142.359375 -63.09375 C 142.273438 -61.65625 142.109375 -59.707031 141.859375 -57.25 L 39.6875 -57.25 C 40.789062 -50.125 43.0625 -44.054688 46.5 -39.046875 C 49.9375 -34.046875 54.195312 -30.207031 59.28125 -27.53125 C 64.375 -24.863281 69.929688 -23.53125 75.953125 -23.53125 C 83.753906 -23.53125 90.070312 -25.078125 94.90625 -28.171875 C 99.738281 -31.273438 103.257812 -35.582031 105.46875 -41.09375 L 139.0625 -41.09375 C 137.445312 -35.238281 134.796875 -29.597656 131.109375 -24.171875 C 127.421875 -18.742188 122.90625 -13.929688 117.5625 -9.734375 C 112.21875 -5.535156 106.085938 -2.207031 99.171875 0.25 C 92.265625 2.707031 84.738281 3.9375 76.59375 3.9375 C 66.75 3.9375 57.691406 2.132812 49.421875 -1.46875 C 41.148438 -5.070312 33.984375 -10.050781 27.921875 -16.40625 C 21.859375 -22.769531 17.148438 -30.148438 13.796875 -38.546875 C 10.453125 -46.941406 8.78125 -55.890625 8.78125 -65.390625 C 8.78125 -74.972656 10.453125 -83.941406 13.796875 -92.296875 C 17.148438 -100.648438 21.859375 -108.007812 27.921875 -114.375 C 33.984375 -120.738281 41.148438 -125.722656 49.421875 -129.328125 C 57.691406 -132.929688 66.75 -134.734375 76.59375 -134.734375 C 86.425781 -134.734375 95.394531 -132.953125 103.5 -129.390625 C 111.601562 -125.828125 118.554688 -120.925781 124.359375 -114.6875 C 130.171875 -108.457031 134.644531 -101.3125 137.78125 -93.25 C 140.925781 -85.195312 142.5 -76.675781 142.5 -67.6875 Z M 40.96875 -81.046875 L 111.0625 -81.046875 C 110.644531 -85.960938 108.820312 -90.4375 105.59375 -94.46875 C 102.375 -98.5 98.21875 -101.742188 93.125 -104.203125 C 88.039062 -106.660156 82.488281 -107.890625 76.46875 -107.890625 C 71.289062 -107.890625 66.328125 -106.929688 61.578125 -105.015625 C 56.828125 -103.109375 52.648438 -100.179688 49.046875 -96.234375 C 45.441406 -92.296875 42.75 -87.234375 40.96875 -81.046875 Z M 40.96875 -81.046875 "/></g></g></g></g></g><g clip-path="url(#207d11bddb)"><g transform="matrix(1, 0, 0, 1, 81, 233)"><g clip-path="url(#a6af3dbbfd)"><g clip-path="url(#47ca0f7224)"><path fill="#fbf8ef" d="M 0 339.40625 C 186.921875 339.40625 338.449219 187.878906 338.449219 0.957031 L 0 0.957031 Z M 0 339.40625 " fill-opacity="1" fill-rule="nonzero"/></g></g></g></g></svg>